<?xml version="1.0" encoding="UTF-8"?>
<svg xmlns="http://www.w3.org/2000/svg" xmlns:xlink="http://www.w3.org/1999/xlink" width="20pt" height="20pt" viewBox="0 0 20 20" version="1.1">
<g id="surface1">
<path style=" stroke:none;fill-rule:nonzero;fill:rgb(0%,0%,0%);fill-opacity:1;" d="M 17.90625 2.511719 C 15.648438 0.613281 12.160156 0.898438 10 3.097656 C 7.839844 0.898438 4.351562 0.609375 2.09375 2.511719 C -0.84375 4.984375 -0.414062 9.015625 1.679688 11.152344 L 8.53125 18.132812 C 8.921875 18.53125 9.445312 18.753906 10 18.753906 C 10.558594 18.753906 11.078125 18.535156 11.46875 18.136719 L 18.320312 11.15625 C 20.410156 9.019531 20.847656 4.988281 17.90625 2.511719 Z M 16.984375 9.835938 L 10.132812 16.816406 C 10.039062 16.910156 9.960938 16.910156 9.867188 16.816406 L 3.015625 9.835938 C 1.589844 8.382812 1.300781 5.632812 3.300781 3.949219 C 4.820312 2.671875 7.164062 2.863281 8.632812 4.359375 L 10 5.753906 L 11.367188 4.359375 C 12.84375 2.855469 15.1875 2.671875 16.699219 3.945312 C 18.695312 5.628906 18.398438 8.394531 16.984375 9.835938 Z M 16.984375 9.835938 "/>
</g>
</svg>
